 <svg version="1.0" xmlns="http://www.w3.org/2000/svg" width="700.000000pt" height="303.000000pt" viewBox="0 0 700.000000 303.000000" preserveAspectRatio="xMidYMid meet">
<metadata>
Created by potrace 1.12, written by Peter Selinger 2001-2015
</metadata>
<g transform="translate(0.000000,303.000000) scale(0.100000,-0.100000)" fill="#000000" stroke="none">
<path d="M3480 2479 c-14 -4 -56 -15 -95 -23 -38 -8 -131 -29 -205 -46 -74
-17 -146 -33 -159 -36 -40 -8 -81 -58 -81 -98 0 -73 29 -102 120 -121 l55 -11
3 -177 2 -177 39 -39 c27 -27 60 -46 107 -62 61 -21 88 -23 239 -23 186 -1
254 12 328 60 70 46 77 68 77 252 0 122 3 163 13 166 139 38 157 53 157 130 0
37 -5 48 -31 70 -17 14 -40 28 -52 31 -12 2 -51 11 -87 19 -36 8 -99 22 -140
31 -41 9 -91 20 -110 26 -19 5 -56 13 -81 19 -25 5 -52 11 -60 14 -8 2 -25 0
-39 -5z m144 -88 c31 -10 91 -24 236 -57 146 -33 155 -37 155 -64 0 -27 -27
-38 -180 -73 -38 -9 -101 -23 -140 -32 -38 -8 -96 -22 -128 -31 -52 -14 -64
-14 -110 0 -29 8 -97 24 -152 36 -55 12 -113 25 -130 30 -16 4 -56 13 -87 20
-32 7 -65 21 -74 32 -16 17 -16 19 0 37 10 10 34 22 54 26 20 3 64 12 97 20
33 8 94 22 135 31 41 9 98 23 125 30 52 14 144 12 199 -5z m-383 -275 c187
-59 296 -64 469 -18 63 16 118 28 123 25 4 -2 7 -68 7 -146 0 -160 -4 -173
-67 -199 -91 -38 -143 -48 -258 -48 -145 0 -261 28 -317 78 -16 13 -18 35 -18
162 0 123 3 160 15 160 1 0 21 -6 46 -14z"></path>
<path d="M3992 2108 c-8 -8 -12 -61 -12 -184 0 -144 3 -174 16 -185 11 -9 20
-10 32 -2 15 9 17 33 17 194 0 177 -1 184 -20 187 -11 1 -26 -3 -33 -10z"></path>
<path d="M3988 1673 c-8 -10 -23 -44 -33 -76 -18 -57 -18 -59 2 -85 27 -36 81
-42 108 -11 23 24 25 92 5 131 -18 33 -41 58 -55 58 -7 0 -19 -8 -27 -17z"></path>
<path d="M880 1135 c-5 -11 -56 -132 -115 -270 -58 -137 -107 -254 -108 -260
-1 -6 27 -11 63 -13 l65 -3 20 51 c11 29 25 56 31 61 7 5 62 8 124 7 l112 -3
23 -55 23 -55 66 -3 c36 -2 66 0 66 3 0 10 -208 507 -223 533 -12 21 -22 24
-77 25 -54 2 -63 -1 -70 -18z m139 -302 c1 -9 -19 -13 -65 -13 -76 0 -76 -2
-28 106 l27 59 33 -70 c18 -38 33 -76 33 -82z"></path>
<path d="M1349 1156 c-2 -2 -4 -130 -4 -283 l1 -278 62 -3 62 -3 0 109 0 109
53 7 c28 3 67 6 85 6 109 0 183 156 119 251 -12 18 -38 44 -56 56 -31 21 -45
23 -162 23 -70 0 -134 2 -141 5 -8 3 -16 4 -19 1z m263 -133 c22 -20 23 -51 1
-75 -12 -14 -31 -18 -80 -18 l-63 0 0 55 0 55 62 0 c43 0 67 -5 80 -17z"></path>
<path d="M1844 1151 c-2 -2 -4 -130 -4 -283 l0 -278 60 0 60 0 0 109 c0 113 4
123 42 113 10 -2 54 -53 99 -113 l81 -109 69 0 c38 0 69 3 69 6 0 4 -24 37
-53 73 -29 36 -68 86 -87 110 l-34 44 31 26 c70 59 85 158 33 229 -16 23 -40
47 -52 54 -21 12 -304 29 -314 19z m258 -128 c22 -20 23 -51 1 -75 -12 -14
-31 -18 -80 -18 l-63 0 0 48 c0 27 3 52 7 55 14 15 116 7 135 -10z"></path>
<path d="M2424 1145 c-3 -6 -3 -132 -2 -280 l3 -270 178 -3 178 -2 -3 52 -3
53 -112 3 -113 3 0 64 0 65 100 0 100 0 0 55 0 55 -100 0 -100 0 0 50 0 49
113 3 112 3 0 53 0 53 -174 2 c-110 1 -175 -2 -177 -8z"></path>
<path d="M2897 1154 c-4 -4 -7 -133 -7 -286 l0 -278 60 0 60 0 0 169 c0 94 3
172 8 175 4 2 64 -73 133 -167 l126 -172 62 -3 61 -3 -2 281 -3 282 -57 1 -58
2 0 -177 c0 -98 -3 -178 -7 -178 -5 0 -66 79 -136 175 -128 174 -129 175 -167
175 -21 0 -45 2 -52 5 -8 3 -17 2 -21 -1z"></path>
<path d="M3514 1151 c-2 -2 -4 -130 -4 -283 l0 -278 151 0 c173 0 197 7 257
75 121 138 82 391 -71 463 -36 17 -68 21 -186 24 -79 2 -145 1 -147 -1z m301
-143 c69 -65 69 -216 -1 -277 -32 -29 -40 -31 -109 -31 l-75 0 0 163 c0 90 3
167 7 170 3 4 37 7 75 7 63 0 71 -2 103 -32z"></path>
<path d="M4094 1151 c-2 -2 -4 -130 -4 -283 l0 -278 181 0 180 0 -3 53 -3 52
-112 3 -113 3 0 64 0 65 100 0 100 0 0 55 0 55 -100 0 -100 0 0 50 0 49 113 3
112 3 0 53 0 53 -173 2 c-96 1 -176 0 -178 -2z"></path>
<path d="M4567 1154 c-4 -4 -7 -133 -7 -286 l0 -278 60 0 60 0 0 170 c0 101 4
170 10 170 5 0 37 -36 70 -80 l61 -80 47 0 48 0 64 88 65 87 3 -177 2 -178 60
0 60 0 0 286 0 286 -22 -6 c-13 -3 -39 -6 -58 -6 -34 0 -40 -6 -120 -115 -46
-64 -89 -120 -95 -125 -9 -7 -39 27 -104 115 -90 122 -93 125 -131 125 -21 0
-45 2 -52 5 -8 3 -17 2 -21 -1z"></path>
<path d="M5445 1136 c-62 -29 -117 -83 -146 -145 -31 -62 -31 -176 -2 -242 61
-135 205 -200 344 -154 105 35 189 157 189 275 0 202 -212 348 -385 266z m176
-119 c54 -37 79 -82 79 -145 0 -131 -114 -210 -218 -152 -54 30 -82 83 -82
152 0 126 126 209 221 145z"></path>
<path d="M6076 1150 c-113 -36 -171 -164 -113 -251 25 -38 64 -60 147 -84 115
-33 133 -48 106 -90 -30 -45 -120 -41 -161 7 l-24 29 -51 -26 c-27 -14 -50
-31 -50 -37 0 -23 89 -97 132 -109 86 -23 201 5 255 63 46 49 56 122 23 175
-26 43 -52 58 -147 86 -132 38 -157 64 -108 112 33 34 87 34 130 0 l32 -24 42
27 c47 30 50 40 19 69 -55 50 -164 75 -232 53z"></path>
</g>
</svg>